<?xml version="1.0" encoding="iso-8859-1"?>
<!-- Generator: Adobe Illustrator 16.0.0, SVG Export Plug-In . SVG Version: 6.00 Build 0)  -->
<!DOCTYPE svg PUBLIC "-//W3C//DTD SVG 1.1//EN" "http://www.w3.org/Graphics/SVG/1.1/DTD/svg11.dtd">
<svg xmlns="http://www.w3.org/2000/svg" xmlns:xlink="http://www.w3.org/1999/xlink" version="1.1" id="Capa_1" x="0px" y="0px" width="512px" height="512px" viewBox="0 0 561.112 561.112" style="enable-background:new 0 0 561.112 561.112;" xml:space="preserve">
<g>
	<g>
		<path d="M10.043,329.729l0.579,2.497c0.722,3.117,2.232,9.608,7.993,9.608l0,0c1.853,0,4.015-0.661,6.806-2.072    c16.45-8.336,32.464-16.626,47.536-26.332c6.487-4.174,14.231-6.292,23.015-6.292c11.371,0,23.583,3.672,32.905,9.861    c-0.474,0.118-0.947,0.241-1.424,0.359c-2.587,0.657-5.182,1.31-7.805,1.819c-11.249,2.167-19.05,8.956-20.363,17.707    c-1.767,11.779,3.88,25.814,12.587,31.282c7.846,4.928,16.136,5.993,24.659,3.166c3.75-1.24,7.45-2.636,11.146-4.027    c3.962-1.493,8.062-3.035,12.134-4.341c0.885-0.286,1.779-0.616,2.672-0.951c4.459-1.664,8.376-2.599,11.709,0.877    c0.681,0.71,1.709,1.069,3.056,1.069c1.603,0,3.578-0.502,4.9-0.975c5.904-2.105,10.971-1.478,18.205,2.411    c11.783,6.328,24.855,12.578,39.963,19.11c19.604,8.475,40.686,9.115,59.286,9.682c1.987,0.062,3.975,0.082,6.075,0.082    l5.202-0.024c0.27,0,0.539-0.004,0.812-0.004c-1.232,0.934-2.244,1.656-3.297,2.224c-12.926,6.973-17.797,18.706-14.08,33.933    c3.219,13.175,9.38,28.956,28.625,34.117c1.787,0.481,3.729,0.723,5.77,0.723c8.384,0,16.769-3.917,20.865-9.756    c13.108-18.674,14.903-39.988,15.002-56.467c0.036-6.153,1.179-7.312,7.642-7.769c31.8-2.235,65.215-10.865,105.149-27.148    c17.581-7.168,35.187-15.067,52.212-22.705c7.426-3.329,14.852-6.663,22.297-9.947c0.38-0.167,0.796-0.318,1.217-0.478    c1.636-0.604,3.488-1.289,4.577-3.194c1.751-3.064,3.929-6.875,3.342-10.375c-0.551-3.285-5.463-6.255-8.604-6.863    c-2.975-0.57-6.022-0.729-8.964-0.881c-3.562-0.184-6.92-0.355-10.094-1.208c-4.37-1.175-8.621-3.599-12.738-5.944    c-1.094-0.624-2.183-1.244-3.149-1.754c-0.245-0.253-0.616-1.335-0.575-2.085l0.195-3.762c0.678-12.942,1.379-26.329,2.505-39.434    c0.241-2.774,1.351-5.557,2.526-8.499c0.351-0.885,0.705-1.771,1.032-2.648c1.758-4.729,0.864-7.536-0.192-9.058    c-0.942-1.359-2.909-2.975-6.911-2.975l-0.796,0.021c-19.49,0.967-37.593-6.365-53.546-12.807    c-7.315-2.958-15.255-4.565-22.758-5.957c-19.601-3.635-39.233-7.104-59.046-10.604l-21.461-3.803l-2.191-17.413    c-0.126-1.012-0.979-1.771-1.999-1.787l-1.416-0.021c-0.815,0.033-1.881,0.718-2.039,1.718l-0.229,1.432    c-0.531-2.191-1.053-4.357-1.571-6.504c-2.819-11.726-5.483-22.799-8.915-33.684c-4.296-13.636-10.204-28.201-18.597-45.847    c-0.452-0.955-1.57-1.403-2.558-1.032c-0.991,0.375-1.534,1.444-1.244,2.464c0.946,3.358,1.945,6.699,2.945,10.045    c2.224,7.454,4.529,15.161,6.177,22.836c2.114,9.812,3.652,18.335,2.403,27.209l-19.873-46.227    c-0.408-0.942-1.706-1.375-2.697-1.081l-2.693,0.775c-0.575,0.167-1.048,0.576-1.293,1.118c-0.249,0.546-0.24,1.171,0.013,1.709    c8.278,17.523,14.749,36.565,6.907,57.422l-21.122-24.312c-0.6-0.689-1.592-0.898-2.416-0.506    c-0.828,0.392-1.289,1.285-1.134,2.191c0.596,3.452,2.138,6.475,3.631,9.404c2.188,4.284,4.121,8.078,3.064,12.726l-15.667-14.003    c-0.689-0.62-1.705-0.689-2.48-0.184c-0.771,0.51-1.106,1.473-0.812,2.35l5.537,16.581l-16.267-15.169    c-0.661-0.621-1.656-0.723-2.432-0.261c-0.779,0.461-1.163,1.383-0.934,2.26l4.137,16.169l-13.917-11.693    c-0.604-0.51-1.453-0.616-2.163-0.293l-1.313,0.604c-0.992,0.453-1.449,1.608-1.041,2.615l4.435,11.012l-14.043-4.868    c-0.788-0.273-1.681-0.033-2.224,0.608c-0.547,0.645-0.641,1.555-0.237,2.293l3.819,7.005l-7.013-3.513    c-0.563-0.286-1.232-0.29-1.799-0.012c-0.571,0.273-0.979,0.8-1.11,1.42l-0.706,3.378c-1.701-0.955-3.407-1.873-5.1-2.782    c-5.504-2.962-10.698-5.757-15.182-9.429c-6.675-5.467-13.676-8.123-21.4-8.123c-3.268,0-6.675,0.453-10.416,1.383    c-21.383,5.333-38.168,13.868-51.322,26.1c-6.981,6.495-10.388,13.741-9.841,20.955c0.571,7.581,5.435,14.933,14.104,21.359    c-0.754,0.812-1.477,1.555-2.231,1.967c-4.492,2.464-11.175,3.823-18.817,3.827c-12.632,0-25.761-3.639-32.681-9.053    c-14.957-11.718-30.547-23.105-45.626-34.117l-0.351-0.257c-3.117-2.277-5.275-3.248-7.221-3.248    c-3.962,0-5.806,3.913-7.222,7.576c-14.056,36.435-15.831,74.204-5.267,112.282C7.995,320.868,9.036,325.372,10.043,329.729z" fill="#6eb100"/>
	</g>
</g>
<g>
</g>
<g>
</g>
<g>
</g>
<g>
</g>
<g>
</g>
<g>
</g>
<g>
</g>
<g>
</g>
<g>
</g>
<g>
</g>
<g>
</g>
<g>
</g>
<g>
</g>
<g>
</g>
<g>
</g>
</svg>
